<svg width="1445" height="808" viewBox="0 0 1445 808" fill="none" xmlns="http://www.w3.org/2000/svg">
<g clip-path="url(#clip0_687_185)">
<rect width="1445" height="808" fill="#F3E8D8"/>
<rect x="-403" y="199.945" width="398.513" height="398.513" transform="rotate(-34.59 -403 199.945)" fill="white" fill-opacity="0.5"/>
<rect x="151.307" y="301.779" width="398.513" height="398.513" transform="rotate(-34.59 151.307 301.779)" fill="white" fill-opacity="0.5"/>
<rect x="253.141" y="-252.528" width="398.513" height="398.513" transform="rotate(-34.59 253.141 -252.528)" fill="white" fill-opacity="0.5"/>
<rect x="807.447" y="-150.694" width="398.513" height="398.513" transform="rotate(-34.59 807.447 -150.694)" fill="white" fill-opacity="0.5"/>
<rect x="49.4727" y="856.085" width="398.513" height="398.513" transform="rotate(-34.59 49.4727 856.085)" fill="white" fill-opacity="0.5"/>
<rect x="603.779" y="957.919" width="398.513" height="398.513" transform="rotate(-34.59 603.779 957.919)" fill="white" fill-opacity="0.5"/>
<rect x="705.613" y="403.613" width="398.513" height="398.513" transform="rotate(-34.59 705.613 403.613)" fill="white" fill-opacity="0.5"/>
<rect x="1259.92" y="505.447" width="398.513" height="398.513" transform="rotate(-34.59 1259.92 505.447)" fill="white" fill-opacity="0.5"/>
<rect x="1335.33" y="614.804" width="66.4189" height="66.4189" transform="rotate(-34.59 1335.33 614.804)" fill="white" fill-opacity="0.5"/>
<rect x="1427.72" y="631.776" width="66.4189" height="66.4189" transform="rotate(-34.59 1427.72 631.776)" fill="white" fill-opacity="0.5"/>
<rect x="1444.69" y="539.392" width="66.4189" height="66.4189" transform="rotate(-34.59 1444.69 539.392)" fill="white" fill-opacity="0.5"/>
<rect x="1410.74" y="724.16" width="66.4189" height="66.4189" transform="rotate(-34.59 1410.74 724.16)" fill="white" fill-opacity="0.5"/>
<rect x="588.733" y="0.130615" width="66.4189" height="66.4189" transform="rotate(-34.59 588.733 0.130615)" fill="white" fill-opacity="0.5"/>
<rect x="681.118" y="17.103" width="66.4189" height="66.4189" transform="rotate(-34.59 681.118 17.103)" fill="white" fill-opacity="0.5"/>
<rect x="664.146" y="109.487" width="66.4189" height="66.4189" transform="rotate(-34.59 664.146 109.487)" fill="white" fill-opacity="0.5"/>
<rect x="756.53" y="126.46" width="66.4189" height="66.4189" transform="rotate(-34.59 756.53 126.46)" fill="white" fill-opacity="0.5"/>
<rect x="773.502" y="34.0752" width="66.4189" height="66.4189" transform="rotate(-34.59 773.502 34.0752)" fill="white" fill-opacity="0.5"/>
<rect x="865.887" y="51.0476" width="66.4189" height="66.4189" transform="rotate(-34.59 865.887 51.0476)" fill="white" fill-opacity="0.5"/>
<rect x="0.482422" y="83.0654" width="66.4189" height="66.4189" transform="rotate(-34.59 0.482422 83.0654)" fill="white" fill-opacity="0.5"/>
<rect x="92.8672" y="100.038" width="66.4189" height="66.4189" transform="rotate(-34.59 92.8672 100.038)" fill="white" fill-opacity="0.5"/>
<rect x="109.839" y="7.65332" width="66.4189" height="66.4189" transform="rotate(-34.59 109.839 7.65332)" fill="white" fill-opacity="0.5"/>
<rect x="202.224" y="24.6257" width="66.4189" height="66.4189" transform="rotate(-34.59 202.224 24.6257)" fill="white" fill-opacity="0.5"/>
<rect x="75.8945" y="192.422" width="66.4189" height="66.4189" transform="rotate(-34.59 75.8945 192.422)" fill="white" fill-opacity="0.5"/>
<rect x="168.279" y="209.395" width="66.4189" height="66.4189" transform="rotate(-34.59 168.279 209.395)" fill="white" fill-opacity="0.5"/>
<rect x="185.251" y="117.01" width="66.4189" height="66.4189" transform="rotate(-34.59 185.251 117.01)" fill="white" fill-opacity="0.5"/>
<rect x="277.636" y="133.982" width="66.4189" height="66.4189" transform="rotate(-34.59 277.636 133.982)" fill="white" fill-opacity="0.5"/>
<rect x="343.598" y="814.618" width="66.4189" height="66.4189" transform="rotate(-34.59 343.598 814.618)" fill="white" fill-opacity="0.5"/>
<rect x="435.982" y="831.591" width="66.4189" height="66.4189" transform="rotate(-34.59 435.982 831.591)" fill="white" fill-opacity="0.5"/>
<rect x="28.7393" y="709.023" width="33.2094" height="33.2094" transform="rotate(-34.59 28.7393 709.023)" fill="white" fill-opacity="0.5"/>
<rect x="74.9316" y="717.509" width="33.2094" height="33.2094" transform="rotate(-34.59 74.9316 717.509)" fill="white" fill-opacity="0.5"/>
<rect x="83.418" y="671.317" width="33.2094" height="33.2094" transform="rotate(-34.59 83.418 671.317)" fill="white" fill-opacity="0.5"/>
<rect x="129.61" y="679.803" width="33.2094" height="33.2094" transform="rotate(-34.59 129.61 679.803)" fill="white" fill-opacity="0.5"/>
<rect x="66.4453" y="763.701" width="33.2094" height="33.2094" transform="rotate(-34.59 66.4453 763.701)" fill="white" fill-opacity="0.5"/>
<rect x="112.638" y="772.188" width="33.2094" height="33.2094" transform="rotate(-34.59 112.638 772.188)" fill="white" fill-opacity="0.5"/>
<rect x="121.124" y="725.995" width="33.2094" height="33.2094" transform="rotate(-34.59 121.124 725.995)" fill="white" fill-opacity="0.5"/>
<rect x="167.315" y="734.481" width="33.2094" height="33.2094" transform="rotate(-34.59 167.315 734.481)" fill="white" fill-opacity="0.5"/>
<rect x="1075.15" y="471.502" width="33.2094" height="33.2094" transform="rotate(-34.59 1075.15 471.502)" fill="white" fill-opacity="0.5"/>
<rect x="1121.34" y="479.989" width="33.2094" height="33.2094" transform="rotate(-34.59 1121.34 479.989)" fill="white" fill-opacity="0.5"/>
<rect x="1129.83" y="433.796" width="33.2094" height="33.2094" transform="rotate(-34.59 1129.83 433.796)" fill="white" fill-opacity="0.5"/>
<rect x="1176.02" y="442.282" width="33.2094" height="33.2094" transform="rotate(-34.59 1176.02 442.282)" fill="white" fill-opacity="0.5"/>
<rect x="1112.86" y="526.181" width="33.2094" height="33.2094" transform="rotate(-34.59 1112.86 526.181)" fill="white" fill-opacity="0.5"/>
<rect x="1159.05" y="534.667" width="33.2094" height="33.2094" transform="rotate(-34.59 1159.05 534.667)" fill="white" fill-opacity="0.5"/>
<rect x="1167.54" y="488.475" width="33.2094" height="33.2094" transform="rotate(-34.59 1167.54 488.475)" fill="white" fill-opacity="0.5"/>
<rect x="1213.73" y="496.961" width="33.2094" height="33.2094" transform="rotate(-34.59 1213.73 496.961)" fill="white" fill-opacity="0.5"/>
<rect x="1301.39" y="799.573" width="16.6047" height="16.6047" transform="rotate(-34.59 1301.39 799.573)" fill="white" fill-opacity="0.5"/>
<rect x="1324.48" y="803.816" width="16.6047" height="16.6047" transform="rotate(-34.59 1324.48 803.816)" fill="white" fill-opacity="0.5"/>
<rect x="1328.73" y="780.719" width="16.6047" height="16.6047" transform="rotate(-34.59 1328.73 780.719)" fill="white" fill-opacity="0.5"/>
<rect x="1351.82" y="784.963" width="16.6047" height="16.6047" transform="rotate(-34.59 1351.82 784.963)" fill="white" fill-opacity="0.5"/>
<rect x="1347.58" y="808.059" width="16.6047" height="16.6047" transform="rotate(-34.59 1347.58 808.059)" fill="white" fill-opacity="0.5"/>
<rect x="1370.67" y="812.302" width="16.6047" height="16.6047" transform="rotate(-34.59 1370.67 812.302)" fill="white" fill-opacity="0.5"/>
<rect x="1356.07" y="761.867" width="16.6047" height="16.6047" transform="rotate(-34.59 1356.07 761.867)" fill="white" fill-opacity="0.5"/>
<rect x="1379.16" y="766.11" width="16.6047" height="16.6047" transform="rotate(-34.59 1379.16 766.11)" fill="white" fill-opacity="0.5"/>
<rect x="1383.4" y="743.014" width="16.6047" height="16.6047" transform="rotate(-34.59 1383.4 743.014)" fill="white" fill-opacity="0.5"/>
<rect x="1406.5" y="747.257" width="16.6047" height="16.6047" transform="rotate(-34.59 1406.5 747.257)" fill="white" fill-opacity="0.5"/>
<rect x="1374.92" y="789.206" width="16.6047" height="16.6047" transform="rotate(-34.59 1374.92 789.206)" fill="white" fill-opacity="0.5"/>
<rect x="1398.01" y="793.449" width="16.6047" height="16.6047" transform="rotate(-34.59 1398.01 793.449)" fill="white" fill-opacity="0.5"/>
<rect x="1402.26" y="770.353" width="16.6047" height="16.6047" transform="rotate(-34.59 1402.26 770.353)" fill="white" fill-opacity="0.5"/>
<rect x="1425.35" y="774.596" width="16.6047" height="16.6047" transform="rotate(-34.59 1425.35 774.596)" fill="white" fill-opacity="0.5"/>
<rect x="1393.77" y="816.545" width="16.6047" height="16.6047" transform="rotate(-34.59 1393.77 816.545)" fill="white" fill-opacity="0.5"/>
<rect x="1421.11" y="797.692" width="16.6047" height="16.6047" transform="rotate(-34.59 1421.11 797.692)" fill="white" fill-opacity="0.5"/>
<rect x="1444.21" y="801.935" width="16.6047" height="16.6047" transform="rotate(-34.59 1444.21 801.935)" fill="white" fill-opacity="0.5"/>
<rect x="486.899" y="554.437" width="33.2094" height="33.2094" transform="rotate(-34.59 486.899 554.437)" fill="white" fill-opacity="0.5"/>
<rect x="533.091" y="562.924" width="33.2094" height="33.2094" transform="rotate(-34.59 533.091 562.924)" fill="white" fill-opacity="0.5"/>
<rect x="541.578" y="516.731" width="33.2094" height="33.2094" transform="rotate(-34.59 541.578 516.731)" fill="white" fill-opacity="0.5"/>
<rect x="587.77" y="525.218" width="33.2094" height="33.2094" transform="rotate(-34.59 587.77 525.218)" fill="white" fill-opacity="0.5"/>
<rect x="524.605" y="609.116" width="33.2094" height="33.2094" transform="rotate(-34.59 524.605 609.116)" fill="white" fill-opacity="0.5"/>
<rect x="570.798" y="617.602" width="33.2094" height="33.2094" transform="rotate(-34.59 570.798 617.602)" fill="white" fill-opacity="0.5"/>
<rect x="579.284" y="571.409" width="33.2094" height="33.2094" transform="rotate(-34.59 579.284 571.409)" fill="white" fill-opacity="0.5"/>
<rect x="625.476" y="579.896" width="33.2094" height="33.2094" transform="rotate(-34.59 625.476 579.896)" fill="white" fill-opacity="0.5"/>
<rect x="596.257" y="479.025" width="33.2094" height="33.2094" transform="rotate(-34.59 596.257 479.025)" fill="white" fill-opacity="0.5"/>
<rect x="642.449" y="487.511" width="33.2094" height="33.2094" transform="rotate(-34.59 642.449 487.511)" fill="white" fill-opacity="0.5"/>
<rect x="650.936" y="441.319" width="33.2094" height="33.2094" transform="rotate(-34.59 650.936 441.319)" fill="white" fill-opacity="0.5"/>
<rect x="697.127" y="449.805" width="33.2094" height="33.2094" transform="rotate(-34.59 697.127 449.805)" fill="white" fill-opacity="0.5"/>
<rect x="633.963" y="533.703" width="33.2094" height="33.2094" transform="rotate(-34.59 633.963 533.703)" fill="white" fill-opacity="0.5"/>
<rect x="680.154" y="542.19" width="33.2094" height="33.2094" transform="rotate(-34.59 680.154 542.19)" fill="white" fill-opacity="0.5"/>
<rect x="688.642" y="495.997" width="33.2094" height="33.2094" transform="rotate(-34.59 688.642 495.997)" fill="white" fill-opacity="0.5"/>
<rect x="734.833" y="504.484" width="33.2094" height="33.2094" transform="rotate(-34.59 734.833 504.484)" fill="white" fill-opacity="0.5"/>
<rect x="562.312" y="663.794" width="33.2094" height="33.2094" transform="rotate(-34.59 562.312 663.794)" fill="white" fill-opacity="0.5"/>
<rect x="608.503" y="672.28" width="33.2094" height="33.2094" transform="rotate(-34.59 608.503 672.28)" fill="white" fill-opacity="0.5"/>
<rect x="616.99" y="626.088" width="33.2094" height="33.2094" transform="rotate(-34.59 616.99 626.088)" fill="white" fill-opacity="0.5"/>
<rect x="663.183" y="634.574" width="33.2094" height="33.2094" transform="rotate(-34.59 663.183 634.574)" fill="white" fill-opacity="0.5"/>
<rect x="600.018" y="718.472" width="33.2094" height="33.2094" transform="rotate(-34.59 600.018 718.472)" fill="white" fill-opacity="0.5"/>
<rect x="646.209" y="726.958" width="33.2094" height="33.2094" transform="rotate(-34.59 646.209 726.958)" fill="white" fill-opacity="0.5"/>
<rect x="654.696" y="680.766" width="33.2094" height="33.2094" transform="rotate(-34.59 654.696 680.766)" fill="white" fill-opacity="0.5"/>
<rect x="700.888" y="689.252" width="33.2094" height="33.2094" transform="rotate(-34.59 700.888 689.252)" fill="white" fill-opacity="0.5"/>
<rect x="671.669" y="588.382" width="33.2094" height="33.2094" transform="rotate(-34.59 671.669 588.382)" fill="white" fill-opacity="0.5"/>
<rect x="717.86" y="596.868" width="33.2094" height="33.2094" transform="rotate(-34.59 717.86 596.868)" fill="white" fill-opacity="0.5"/>
<rect x="726.347" y="550.676" width="33.2094" height="33.2094" transform="rotate(-34.59 726.347 550.676)" fill="white" fill-opacity="0.5"/>
<rect x="772.538" y="559.162" width="33.2094" height="33.2094" transform="rotate(-34.59 772.538 559.162)" fill="white" fill-opacity="0.5"/>
<rect x="709.375" y="643.06" width="33.2094" height="33.2094" transform="rotate(-34.59 709.375 643.06)" fill="white" fill-opacity="0.5"/>
<rect x="755.566" y="651.547" width="33.2094" height="33.2094" transform="rotate(-34.59 755.566 651.547)" fill="white" fill-opacity="0.5"/>
<rect x="764.053" y="605.354" width="33.2094" height="33.2094" transform="rotate(-34.59 764.053 605.354)" fill="white" fill-opacity="0.5"/>
<rect x="810.245" y="613.84" width="33.2094" height="33.2094" transform="rotate(-34.59 810.245 613.84)" fill="white" fill-opacity="0.5"/>
<rect x="1067.63" y="-7.39233" width="33.2094" height="33.2094" transform="rotate(-34.59 1067.63 -7.39233)" fill="white" fill-opacity="0.5"/>
<rect x="1113.82" y="1.09399" width="33.2094" height="33.2094" transform="rotate(-34.59 1113.82 1.09399)" fill="white" fill-opacity="0.5"/>
<rect x="1105.33" y="47.2861" width="33.2094" height="33.2094" transform="rotate(-34.59 1105.33 47.2861)" fill="white" fill-opacity="0.5"/>
<rect x="1151.53" y="55.7725" width="33.2094" height="33.2094" transform="rotate(-34.59 1151.53 55.7725)" fill="white" fill-opacity="0.5"/>
<rect x="1160.01" y="9.58008" width="33.2094" height="33.2094" transform="rotate(-34.59 1160.01 9.58008)" fill="white" fill-opacity="0.5"/>
<rect x="1206.21" y="18.0662" width="33.2094" height="33.2094" transform="rotate(-34.59 1206.21 18.0662)" fill="white" fill-opacity="0.5"/>
<rect x="1260.88" y="-19.6396" width="33.2094" height="33.2094" transform="rotate(-34.59 1260.88 -19.6396)" fill="white" fill-opacity="0.5"/>
<rect x="1143.04" y="101.964" width="99.6284" height="99.6284" transform="rotate(-34.59 1143.04 101.964)" fill="white" fill-opacity="0.5"/>
<rect x="1281.62" y="127.423" width="99.6284" height="99.6284" transform="rotate(-34.59 1281.62 127.423)" fill="white" fill-opacity="0.5"/>
<rect x="-100.388" y="112.285" width="99.6284" height="99.6284" transform="rotate(-34.59 -100.388 112.285)" fill="white" fill-opacity="0.5"/>
<rect x="205.984" y="264.073" width="99.6284" height="99.6284" transform="rotate(-34.59 205.984 264.073)" fill="white" fill-opacity="0.5"/>
<rect x="344.562" y="289.531" width="99.6284" height="99.6284" transform="rotate(-34.59 344.562 289.531)" fill="white" fill-opacity="0.5"/>
<rect x="781.025" y="512.97" width="66.4189" height="66.4189" transform="rotate(-34.59 781.025 512.97)" fill="white" fill-opacity="0.5"/>
<rect x="873.41" y="529.942" width="66.4189" height="66.4189" transform="rotate(-34.59 873.41 529.942)" fill="white" fill-opacity="0.5"/>
</g>
<defs>
<clipPath id="clip0_687_185">
<rect width="1445" height="808" fill="white"/>
</clipPath>
</defs>
</svg>
